# xmcd
#
# Track frame offsets: 
#        180
#        10650
#        24299
#        34647
#        47929
#        62554
#        82098
#        105981
#        126226
#        143697
#        158923
#        163507
#
# Disc length: 2360 seconds
#
# Revision: 0
# Processed by: cddbd v1.5.2PL0 Copyright (c) Steve Scherf et al.
# Submitted via: ExactAudioCopyFreeDBPlugin 1.0
#
DISCID=8d09360c
DTITLE=Josef Ebert - A white Gospel Christmas
DYEAR=1900
DGENRE=Weihnachten
TTITLE0=Amen
TTITLE1=Nobody knows
TTITLE2=Go tell it on the Mountain
TTITLE3=Silent Night
TTITLE4=Amazing Grace
TTITLE5=What child is this
TTITLE6=The first nowell
TTITLE7=I'll be home for christmas
TTITLE8=Little drummer boy
TTITLE9=Da wurde mitten in der Nacht
TTITLE10=Merry christmas
TTITLE11=Weihnachts Hymne
EXTD=
EXTT0=
EXTT1=
EXTT2=
EXTT3=
EXTT4=
EXTT5=
EXTT6=
EXTT7=
EXTT8=
EXTT9=
EXTT10=
EXTT11=
PLAYORDER=
